<svg width="560" height="560" viewBox="0 0 560 560" fill="none" xmlns="http://www.w3.org/2000/svg">
<g id="spotify" clip-path="url(#clip0)">
<g id="bg" filter="url(#filter0_d)">
<circle cx="280" cy="280" r="158" fill="#00D95A"/>
</g>
<path id="spotify3" d="M186 230.5C247 214 319.5 218 379.5 250" stroke="#202120" stroke-width="30" stroke-linecap="round"/>
<path id="spotify2" d="M194 281C254.5 265.5 309.5 272.5 359.5 301" stroke="#202120" stroke-width="25" stroke-linecap="round"/>
<path id="spotify1" d="M198 328C257.5 317.5 294 318 343 344" stroke="#202120" stroke-width="20" stroke-linecap="round"/>
<path id="music1" d="M222 190C222 261 222 299.5 222 370" stroke="#202120" stroke-width="25" stroke-linecap="round" stroke-linejoin="round"/>
<path id="music-big-2" d="M277 190C277 261 277 299.5 277 370" stroke="#202120" stroke-width="25" stroke-linecap="round" stroke-linejoin="round"/>
<path id="music2" d="M277 250C276.998 273.434 277.002 286.563 277 310" stroke="#202120" stroke-width="25" stroke-linecap="round" stroke-linejoin="round"/>
<path id="music-small-1" d="M222 250C221.999 273.434 222.003 286.563 222 310" stroke="#202120" stroke-width="25" stroke-linecap="round" stroke-linejoin="round"/>
<path id="point1" d="M222 385C221.999 385.391 222.003 385.609 222 386" stroke="#202120" stroke-width="25" stroke-linecap="round" stroke-linejoin="round"/>
<path id="point2" d="M277 385C276.999 385.391 277.003 385.609 277 386" stroke="#202120" stroke-width="25" stroke-linecap="round" stroke-linejoin="round"/>
<path id="point3" d="M338 385C337.999 385.391 338.003 385.609 338 386" stroke="#202120" stroke-width="25" stroke-linecap="round" stroke-linejoin="round"/>
<path id="music3" d="M338 190C338 260 338 299.5 338 370" stroke="#202120" stroke-width="25" stroke-linecap="round" stroke-linejoin="round"/>
<path id="music-small-3" d="M338 250C337.999 273.434 338.003 286.563 338 310" stroke="#202120" stroke-width="25" stroke-linecap="round" stroke-linejoin="round"/>
<g id="text-spotify" filter="url(#filter1_d)">
<path d="M152.392 461.68C158.28 461.68 163.336 462.672 167.56 464.656C171.784 466.576 175.496 469.648 178.696 473.872L169.576 482.8C167.912 479.344 165.704 476.784 162.952 475.12C160.2 473.392 156.712 472.528 152.488 472.528C148.648 472.528 145.672 473.264 143.56 474.736C141.512 476.144 140.488 478.032 140.488 480.4C140.488 482.576 141.544 484.304 143.656 485.584C145.768 486.864 149.576 487.984 155.08 488.944C160.84 490.032 165.416 491.376 168.808 492.976C172.2 494.576 174.664 496.592 176.2 499.024C177.8 501.392 178.6 504.368 178.6 507.952C178.6 511.856 177.48 515.248 175.24 518.128C173.064 520.944 169.992 523.12 166.024 524.656C162.12 526.192 157.64 526.96 152.584 526.96C145.608 526.96 139.88 526 135.4 524.08C130.984 522.096 127.4 519.12 124.648 515.152L132.52 505.744C134.888 509.648 137.608 512.368 140.68 513.904C143.752 515.376 147.56 516.112 152.104 516.112C156.2 516.112 159.304 515.472 161.416 514.192C163.592 512.912 164.68 511.088 164.68 508.72C164.68 506.992 163.656 505.552 161.608 504.4C159.624 503.248 156.04 502.16 150.856 501.136C144.904 499.92 140.136 498.48 136.552 496.816C133.032 495.152 130.472 493.104 128.872 490.672C127.272 488.24 126.472 485.232 126.472 481.648C126.472 477.872 127.496 474.48 129.544 471.472C131.592 468.4 134.568 466 138.472 464.272C142.44 462.544 147.08 461.68 152.392 461.68ZM213.702 477.04C220.102 477.04 225.126 479.248 228.774 483.664C232.422 488.016 234.246 494.096 234.246 501.904C234.246 509.776 232.422 515.92 228.774 520.336C225.126 524.752 220.102 526.96 213.702 526.96C210.246 526.96 207.238 526.192 204.678 524.656C202.118 523.056 200.102 520.88 198.63 518.128V546.16H185.478V478H197.094L197.574 487.504C198.982 484.304 201.062 481.776 203.814 479.92C206.63 478 209.926 477.04 213.702 477.04ZM209.766 516.88C213.35 516.88 216.134 515.6 218.118 513.04C220.102 510.48 221.094 506.8 221.094 502C221.094 497.2 220.102 493.52 218.118 490.96C216.134 488.4 213.35 487.12 209.766 487.12C206.566 487.12 203.974 488.24 201.99 490.48C200.006 492.656 198.886 495.792 198.63 499.888V504.112C198.886 508.144 200.006 511.28 201.99 513.52C203.974 515.76 206.566 516.88 209.766 516.88ZM264.093 477.04C271.837 477.04 277.853 479.248 282.141 483.664C286.493 488.08 288.669 494.192 288.669 502C288.669 509.808 286.493 515.92 282.141 520.336C277.853 524.752 271.837 526.96 264.093 526.96C256.349 526.96 250.301 524.752 245.949 520.336C241.661 515.92 239.517 509.808 239.517 502C239.517 494.192 241.661 488.08 245.949 483.664C250.301 479.248 256.349 477.04 264.093 477.04ZM264.093 486.832C260.381 486.832 257.533 488.112 255.549 490.672C253.629 493.168 252.669 496.944 252.669 502C252.669 507.056 253.629 510.864 255.549 513.424C257.533 515.92 260.381 517.168 264.093 517.168C267.805 517.168 270.621 515.92 272.541 513.424C274.525 510.864 275.517 507.056 275.517 502C275.517 496.944 274.525 493.168 272.541 490.672C270.621 488.112 267.805 486.832 264.093 486.832ZM328.476 523.024C326.94 524.24 324.988 525.2 322.62 525.904C320.316 526.608 317.884 526.96 315.324 526.96C304.636 526.96 299.292 522.128 299.292 512.464V487.792H290.556V478H299.292V466.96L312.444 463.312V478H327.996V487.792H312.444V510.352C312.444 514.768 314.652 516.976 319.068 516.976C321.884 516.976 324.348 516.08 326.46 514.288L328.476 523.024ZM339.488 471.088C334.048 471.088 331.328 468.752 331.328 464.08C331.328 459.344 334.048 456.976 339.488 456.976C344.929 456.976 347.649 459.344 347.649 464.08C347.649 468.752 344.929 471.088 339.488 471.088ZM346.016 526H332.864V478H346.016V526ZM372.15 478H387.318V487.792H372.726V526H359.574V487.792H351.222V478H359.574V472.24C359.574 466.992 361.206 462.992 364.47 460.24C367.734 457.424 372.15 456.016 377.718 456.016C379.83 456.016 381.75 456.24 383.478 456.688C385.27 457.136 386.678 457.744 387.702 458.512L385.878 467.248C384.406 466.288 382.582 465.808 380.406 465.808C374.902 465.808 372.15 468.272 372.15 473.2V478ZM417.964 528.976C415.596 535.504 412.844 540.08 409.708 542.704C406.636 545.328 402.508 546.64 397.324 546.64C392.14 546.64 388.076 545.392 385.132 542.896L388.396 533.584C389.42 534.736 390.54 535.504 391.756 535.888C393.036 536.336 394.604 536.56 396.46 536.56C398.444 536.56 400.044 536.144 401.26 535.312C402.476 534.48 403.5 532.976 404.332 530.8L406.06 526.672L400.78 514.192L386.092 478H400.684L409.708 506.8L412.3 516.4L415.18 506.224L424.012 478H437.356L417.964 528.976Z" fill="#00D95A"/>
</g>
</g>
<defs>
<filter id="filter0_d" x="115" y="122" width="330" height="330" filterUnits="userSpaceOnUse" color-interpolation-filters="sRGB">
<feFlood flood-opacity="0" result="BackgroundImageFix"/>
<feColorMatrix in="SourceAlpha" type="matrix" values="0 0 0 0 0 0 0 0 0 0 0 0 0 0 0 0 0 0 127 0"/>
<feOffset dy="7"/>
<feGaussianBlur stdDeviation="3.5"/>
<feColorMatrix type="matrix" values="0 0 0 0 0.0705882 0 0 0 0 0.0705882 0 0 0 0 0.0705882 0 0 0 0.8 0"/>
<feBlend mode="normal" in2="BackgroundImageFix" result="effect1_dropShadow"/>
<feBlend mode="normal" in="SourceGraphic" in2="effect1_dropShadow" result="shape"/>
</filter>
<filter id="filter1_d" x="117.648" y="456.016" width="326.708" height="104.624" filterUnits="userSpaceOnUse" color-interpolation-filters="sRGB">
<feFlood flood-opacity="0" result="BackgroundImageFix"/>
<feColorMatrix in="SourceAlpha" type="matrix" values="0 0 0 0 0 0 0 0 0 0 0 0 0 0 0 0 0 0 127 0"/>
<feOffset dy="7"/>
<feGaussianBlur stdDeviation="3.5"/>
<feColorMatrix type="matrix" values="0 0 0 0 0.0705882 0 0 0 0 0.0705882 0 0 0 0 0.0705882 0 0 0 0.8 0"/>
<feBlend mode="normal" in2="BackgroundImageFix" result="effect1_dropShadow"/>
<feBlend mode="normal" in="SourceGraphic" in2="effect1_dropShadow" result="shape"/>
</filter>
<clipPath id="clip0">
<rect width="560" height="560" fill="white"/>
</clipPath>
</defs>
</svg>
